Coordinates
version=1
nRows=34
nColumns=19
inDegrees=yes

Units are S.I. units (second, meters, Newtons, ...)
If the header above contains a line with 'inDegrees', this indicates whether rotational values are in degrees (yes) or radians (no).

endheader
time	pelvis_tilt	pelvis_list	pelvis_rotation	pelvis_tx	pelvis_ty	pelvis_tz	hip_flexion_r	hip_adduction_r	hip_rotation_r	knee_angle_r	knee_angle_r_beta	ankle_angle_r	hip_flexion_l	hip_adduction_l	hip_rotation_l	knee_angle_l	knee_angle_l_beta	ankle_angle_l
     16.58666667	     -1.98014619	     13.40322101	      6.07955249	      2.36685082	      0.92080752	      1.00396049	    -23.20861043	    -17.40127908	    -25.49998491	     74.71471216	      1.30401773	    -11.32495350	     25.90384077	     16.74293464	    -13.37139227	     10.71172480	      0.18695487	      5.02190307
     16.59333333	     -1.37370277	     14.03465079	      6.40143135	      2.36490959	      0.91741172	      1.00402866	    -21.88071914	    -17.95660062	    -24.22063210	     79.42138109	      1.38616460	    -10.88392037	     25.53188937	     17.07644742	    -14.31483701	     13.95274661	      0.24352137	      4.89232928
     16.60000000	     -0.26820686	     14.92990644	      6.85474426	      2.36297013	      0.91435537	      1.00417613	    -21.26947969	    -18.66290699	    -23.47530398	     83.82984252	      1.46310676	    -10.35894841	     24.41583563	     17.71039258	    -14.75021773	     17.12401067	      0.29887037	      4.57905854
     16.60666667	      0.13031627	     15.45063048	      7.42014157	      2.36075803	      0.91044063	      1.00415216	    -19.56789627	    -19.06159893	    -22.39710966	     88.25862355	      1.54040357	     -9.84502137	     24.13236718	     17.98153374	    -14.99867186	     20.65941660	      0.36057484	      4.59310848
     16.61333333	      0.64828645	     16.05428475	      8.03278616	      2.35844563	      0.90662248	      1.00413850	    -17.99106503	    -19.58463728	    -21.51620046	     92.47425642	      1.61398025	     -9.30544548	     23.59473997	     18.36219234	    -14.96105021	     24.15372252	      0.42156198	      4.91778702
     16.62000000	      0.96123742	     16.53584486	      8.70173950	      2.35594824	      0.90271288	      1.00403972	    -16.03465107	    -20.04430780	    -20.55982183	     96.52454911	      1.68467119	     -8.72228235	     23.18849456	     18.67532410	    -14.66789558	     27.62521625	      0.48215098	      5.69667139
     16.62666667	      1.05034130	     16.84931311	      9.39971428	      2.35326169	      0.89883578	      1.00383617	    -13.62342884	    -20.41455496	    -19.45880879	    100.38158589	      1.75198918	     -8.19905187	     22.91857405	     18.88917705	    -14.13997122	     31.00094305	      0.54106853	      6.94682845
     16.63333333	      0.94880069	     16.93594112	     10.06606431	      2.35034842	      0.89514202	      1.00356771	    -10.72926769	    -20.61864465	    -18.13431419	    104.00771321	      1.81527704	     -7.71082996	     22.74436771	     18.93564445	    -13.42355467	     34.21642264	      0.59718923	      8.63630854
     16.64000000	      0.64657754	     16.79252680	     10.67697357	      2.34730515	      0.89173654	      1.00328181	     -7.33715170	    -20.65475993	    -16.59842629	    107.35075994	      1.87362422	     -7.27115954	     22.63023312	     18.81294055	    -12.53948510	     37.16111354	      0.64858378	     10.66546070
     16.64666667	      0.13274696	     16.40887693	     11.18969138	      2.34416202	      0.88863901	      1.00295301	     -3.41352653	    -20.50173570	    -14.83168547	    110.38111470	      1.92651388	     -6.91854900	     22.57865403	     18.49816255	    -11.55914012	     39.78336152	      0.69435065	     12.96343408
     16.65333333	     -0.53583331	     15.81756015	     11.57243720	      2.34100984	      0.88593137	      1.00266280	      0.92795501	    -20.17080502	    -12.91541164	    113.04120725	      1.97294126	     -6.56446872	     22.49812223	     17.99950104	    -10.51971643	     42.01075340	      0.73322597	     15.37813299
     16.66000000	     -1.18991563	     15.03479287	     11.69858896	      2.33794760	      0.88386065	      1.00254880	      5.51105896	    -19.58004346	    -10.82162921	    115.25654797	      2.01160625	     -6.29868716	     22.18889897	     17.24372752	     -9.55360048	     43.77560767	      0.76402849	     17.82893421
     16.66666667	     -2.02622360	     14.16413656	     11.74167265	      2.33511652	      0.88215002	      1.00240197	     10.35847718	    -18.93092213	     -8.78588858	    117.01987087	      2.04238204	     -6.02658740	     21.80888900	     16.42547066	     -8.54914910	     45.05367606	      0.78633499	     20.14153283
     16.67333333	     -2.43841075	     13.26621324	     11.41039601	      2.33282523	      0.88162219	      1.00263624	     14.77499296	    -18.04369347	     -6.75059151	    118.18376002	      2.06269573	     -5.76408324	     20.66759937	     15.35554674	     -7.82226911	     45.74536893	      0.79840731	     22.23069414
     16.68000000	     -3.12902481	     12.33817287	     11.12114667	      2.33101364	      0.88134779	      1.00256064	     19.34372822	    -17.18949679	     -4.96305435	    118.84564902	      2.07424788	     -5.43546006	     19.52265611	     14.34730828	     -6.99955959	     45.91666373	      0.80139696	     24.02074902
     16.68666667	     -3.25799035	     11.55091523	     10.46907322	      2.32990424	      0.88234486	      1.00280688	     23.14319688	    -16.28114327	     -3.25747096	    118.94852139	      2.07604334	     -5.00809638	     17.42410857	     13.25090454	     -6.53329191	     45.43568790	      0.79300235	     25.35342454
     16.69333333	     -3.44047629	     10.83618566	      9.73116145	      2.32923708	      0.88364734	      1.00289147	     26.81331993	    -15.43629803	     -1.70103529	    118.62965235	      2.07047802	     -4.47711170	     15.13243431	     12.24314934	     -6.23042950	     44.49365076	      0.77656070	     26.30422905
     16.70000000	     -3.67253744	     10.13939454	      8.96494635	      2.32927665	      0.88540071	      1.00279265	     30.24997592	    -14.62787950	     -0.41593405	    117.83461915	      2.05660208	     -3.83964388	     12.62079434	     11.28730405	     -6.02181265	     43.05530992	      0.75145692	     26.60240227
     16.70666667	     -3.71194486	      9.45051715	      8.11379816	      2.33005694	      0.88787282	      1.00254900	     33.15446008	    -13.79280796	      0.58534140	    116.56248819	      2.03439920	     -3.08369324	      9.65113495	     10.33395180	     -5.98762708	     41.11595133	      0.71760873	     26.31501930
     16.71333333	     -3.37676672	      8.75471307	      7.22967512	      2.33161239	      0.89122313	      1.00207394	     35.25716843	    -13.00564151	      1.19260764	    114.80679904	      2.00375665	     -2.16800689	      6.03862645	      9.40596125	     -6.00063139	     38.68086657	      0.67510848	     25.38114601
     16.72000000	     -2.55416544	      7.89520487	      6.59717431	      2.33377623	      0.89558198	      1.00106404	     36.33146394	    -12.35498724	      1.02115546	    112.56205925	      1.96457855	     -1.08825053	      1.75735313	      8.35620030	     -5.76225016	     35.89361977	      0.62646185	     23.81379028
     16.72666667	     -2.22078126	      7.03142757	      5.85024036	      2.33630975	      0.89936621	      1.00000980	     37.79820933	    -11.70511816	      0.85390171	    110.10267481	      1.92165419	      0.01621132	     -2.04370025	      7.39132340	     -5.97359652	     32.90206086	      0.57424929	     21.44265596
     16.73333333	     -1.49317964	      5.94315833	      5.50135521	      2.33929234	      0.90394258	      0.99841118	     38.32502876	    -11.23676566	     -0.19881335	    107.21094514	      1.87118399	      1.28340529	     -6.27582413	      6.21411941	     -5.78130582	     29.75678767	      0.51935392	     18.40970624
     16.74000000	     -0.95234469	      4.74600195	      5.29264908	      2.34250742	      0.90828014	      0.99663407	     38.79194728	    -10.88626489	     -1.67653048	    104.06208928	      1.81622608	      2.54858528	    -10.21263665	      4.91849772	     -5.81716582	     26.63396240	      0.46485034	     14.84771130
     16.74666667	     -0.52262436	      3.47181461	      5.24219758	      2.34590876	      0.91252538	      0.99478666	     39.10170570	    -10.64399366	     -3.57027477	    100.65591448	      1.75677712	      3.83499132	    -13.90065149	      3.53094119	     -5.94577948	     23.57952989	      0.41154043	     10.71939965
     16.75333333	     -0.04988715	      2.08431514	      5.44986396	      2.34953734	      0.91686792	      0.99278738	     39.00801917	    -10.56098104	     -6.06724555	     96.94842518	      1.69206922	      5.13709300	    -17.45238075	      1.94535610	     -6.13678148	     20.69241121	      0.36115071	      6.19641437
     16.76000000	      0.27654277	      0.68040010	      5.66901515	      2.35323748	      0.92098928	      0.99103664	     38.85158656	    -10.47330578	     -8.80246991	     93.01056399	      1.62334058	      6.37857249	    -20.65065511	      0.33485883	     -6.65593798	     18.01160765	      0.31436186	      1.45752772
     16.76666667	      0.58426507	     -0.79229816	      6.08350846	      2.35700259	      0.92508900	      0.98942577	     38.39787859	    -10.46006538	    -12.05499981	     88.78819295	      1.54964630	      7.48902340	    -23.56471349	     -1.43923288	     -7.31305022	     15.67357031	      0.27355541	     -3.28955820
     16.77333333	      0.61199606	     -2.26964234	      6.43620990	      2.36074130	      0.92880124	      0.98834026	     38.06427720	    -10.29886110	    -15.42206257	     84.33287260	      1.47188629	      8.39057472	    -25.92366331	     -3.19231209	     -8.28679896	     13.73868973	      0.23978537	     -7.79843226
     16.78000000	      0.38644290	     -3.71680654	      6.76755911	      2.36435518	      0.93218557	      0.98786573	     37.81475346	     -9.98606696	    -18.88687308	     79.63301080	      1.38985823	      9.05761136	    -27.67743873	     -4.93455810	     -9.49877999	     12.40505435	      0.21650904	    -11.86335842
     16.78666667	     -0.35074186	     -5.00967098	      6.89974590	      2.36771872	      0.93491681	      0.98824948	     38.04569052	     -9.51892190	    -22.13286376	     74.74496010	      1.30454565	      9.41229969	    -28.60166265	     -6.44748838	    -10.86573719	     11.66049095	      0.20351396	    -15.31106094
     16.79333333	     -1.35393576	     -6.16365650	      6.70020426	      2.37078429	      0.93711381	      0.98967414	     38.56382967	     -8.68741415	    -24.93341403	     69.69060624	      1.21633054	      9.46933030	    -29.00681045	     -7.73363371	    -12.55754722	     11.53087269	      0.20125169	    -18.02239486
     16.80000000	     -2.39381678	     -7.13669460	      6.24311080	      2.37345528	      0.93897252	      0.99198208	     39.12091046	     -7.52291958	    -27.24359399	     64.46974276	      1.12520928	      9.28849410	    -29.17620483	     -8.79549490	    -14.36501646	     11.96729674	      0.20886873	    -19.98898393
     16.80666667	     -3.36395821	     -7.89475774	      5.52717130	      2.37561681	      0.94049160	      0.99513520	     39.64983359	     -6.01851814	    -28.90958101	     59.13311742	      1.03206760	      8.93270574	    -29.23196328	     -9.62671163	    -16.27556666	     13.00203681	      0.22692835	    -21.20033180
